<?xml version="1.0" encoding="iso-8859-1"?>
<!-- Generator: Adobe Illustrator 19.0.0, SVG Export Plug-In . SVG Version: 6.00 Build 0)  -->
<svg xmlns="http://www.w3.org/2000/svg" xmlns:xlink="http://www.w3.org/1999/xlink" version="1.1" id="Layer_1" x="0px" y="0px" viewBox="0 0 512 512" style="enable-background:new 0 0 512 512;" xml:space="preserve">
<path style="fill:#B99C80;" d="M481.168,225.852c-14.334-11.184-29.128-14.738-29.75-14.885c-3.712-0.862-7.553,0.794-9.459,4.096  c-1.906,3.3-1.425,7.46,1.182,10.239c10.508,11.198,17.006,25.119,19.315,41.379c0.11,0.764,0.319,1.511,0.626,2.219  c10.498,24.251,24.938,28.153,33.148,28.153c3.641,0,6.058-0.768,6.361-0.87c3.349-1.124,5.677-4.173,5.879-7.701  C510.345,255.79,494.658,236.379,481.168,225.852z"/>
<g>
	<path style="fill:#512807;" d="M259.692,329.933c-1.227-1.636-2.994-2.784-4.987-3.24c-19.327-4.426-27.263-9.46-27.554-9.648   c-2.329-1.582-5.286-1.931-7.92-0.933c-2.665,1.01-4.661,3.268-5.336,6.036l-17.459,71.563c-0.165,0.671-0.247,1.359-0.247,2.049   v107.593c0,4.776,3.87,8.646,8.646,8.646h28.195c4.776,0,8.646-3.87,8.646-8.646V396.28l19.312-58.443   C261.875,335.151,261.389,332.196,259.692,329.933z"/>
	<path style="fill:#512807;" d="M419.513,376.92l-0.001-0.012c-0.189-1.895-0.999-3.675-2.303-5.062   c-11.509-12.244-21.286-24.247-29.057-35.674c-0.729-1.071-1.688-1.963-2.807-2.615c-10.551-6.128-20.927-4.816-35.286-3.003   c-3.709,0.469-7.91,1.001-12.503,1.451c-1.052,0.103-2.082,0.401-3.027,0.874c-4.122,2.061-5.902,6.994-4.047,11.214   c0.725,1.647,16.613,37.725,25.093,52.934l-25.576,104.266c-0.633,2.579-0.045,5.306,1.594,7.396c1.639,2.09,4.148,3.31,6.803,3.31   h33.892c4.014,0,7.499-2.762,8.418-6.669l22.919-97.581l14.778-25.654C419.306,380.529,419.694,378.719,419.513,376.92z"/>
</g>
<path style="fill:#493625;" d="M243.949,3.101c-2.581-3.089-6.95-3.985-10.54-2.167c-0.561,0.286-56.782,28.595-100.805,36.113  c-27.313,4.664-40.88,21.737-47.452,35.237c-6.941,14.259-7.568,27.489-7.592,28.045c-0.201,4.759,3.486,8.766,8.244,8.984  c0.134,0.007,0.266,0.01,0.4,0.01c4.582,0,8.403-3.613,8.631-8.236c0.005-0.098,0.018-0.337,0.047-0.685l9.522-0.318  c0.005,0.076,0.003,0.157,0.008,0.232c0.287,4.767,4.382,8.408,9.151,8.11c4.767-0.287,8.397-4.384,8.11-9.151  c-0.013-0.211-0.851-21.028,34.863-25.902c47.091-6.427,86.048-57.354,87.682-59.519C246.642,10.647,246.532,6.188,243.949,3.101z"/>
<path style="fill:#A86B38;" d="M461.382,355.146c0.267-0.459,0.498-0.876,0.695-1.233c3.786-6.859,8.147-18.731,12.961-35.285  c4.729-16.254,8.925-40.99,2.075-66.517c-6.803-25.356-22.634-44.939-47.051-58.209c-30.964-16.827-67.408-11.523-99.558-6.844  c-20.341,2.96-39.555,5.757-51.45,1.496c-28.757-10.3-70.559-7.065-86.082-5.364l-35.843-66.229  c3.941-14.316,3.403-29.051,3.289-31.337c-0.118-2.378-1.213-4.604-3.025-6.15c-1.812-1.545-4.182-2.276-6.55-2.017  c-17.451,1.907-28.947,7.435-36.518,13.807c-0.076-0.012-0.148-0.035-0.225-0.044c-50.379-6.217-65.308,24.545-69.303,37.391  L9.094,141.464c-2.279,0.821-4.11,2.56-5.047,4.794c-0.935,2.232-0.891,4.758,0.122,6.957l13.469,29.228  c1.413,3.065,4.48,5.027,7.852,5.027c0.016,0,0.032,0,0.048,0c0.367-0.002,27.175-0.151,51.342-0.121  c7.258,19.662,29.627,78.45,43.699,95.461c13.407,16.207,41.784,45.475,50.392,54.294v166.25c0,4.776,3.87,8.646,8.646,8.646h25.218  c4.775,0,8.646-3.87,8.646-8.646V396.8l14.661-60.1c11.099,4.472,31.521,10.419,65.276,12.954c27.254,2.05,45.505-0.259,58.83-1.944  c11.858-1.499,17.913-2.126,22.86,0.025c2.338,3.365,4.839,6.785,7.512,10.26c16.128,20.978,33.806,38.003,41.681,45.241  l-28.368,97.707c-0.759,2.611-0.244,5.427,1.389,7.603c1.632,2.174,4.194,3.454,6.913,3.454h29.883c3.735,0,7.048-2.399,8.214-5.947  l37.928-115.466c0.81-2.467,0.469-5.166-0.929-7.355L461.382,355.146z"/>
<path style="fill:#8C4A14;" d="M442.331,506.053l37.928-115.466c0.81-2.467,0.469-5.166-0.929-7.355l-17.949-28.087  c0.267-0.459,0.498-0.876,0.695-1.234c3.786-6.859,8.147-18.73,12.961-35.285c4.729-16.254,8.925-40.99,2.075-66.517  c-6.803-25.356-22.634-44.939-47.051-58.209c-24.752-13.451-53.003-12.758-79.766-9.549c13.769,1.881,41.95,11.368,52.582,17.145  c48.628,26.427,51.982,76.277,40.803,114.714c-11.179,38.439-16.073,38.213-16.073,38.213l21.384,33.462L408.222,512h25.896  C437.853,512,441.166,509.601,442.331,506.053z"/>
<path d="M79.391,141.894c-5.522,0-10.015-4.486-10.015-9.997c0-5.513,4.492-9.998,10.015-9.998c5.522,0,10.015,4.486,10.015,9.998  C89.406,137.408,84.913,141.894,79.391,141.894z"/>
<path style="fill:#FFDCAF;" d="M170.971,337.104c0,0,1.859-35.247-20.69-96.928c-0.001-0.003-0.002-0.007-0.003-0.009  c-12.531-26.637-23.945-48.65-29.636-59.403c-10.709,4.13-27.838,5.922-43.744,6.63c7.274,19.706,29.621,78.419,43.684,95.418  C133.911,298.925,162.349,328.271,170.971,337.104L170.971,337.104z"/>
<g>
</g>
<g>
</g>
<g>
</g>
<g>
</g>
<g>
</g>
<g>
</g>
<g>
</g>
<g>
</g>
<g>
</g>
<g>
</g>
<g>
</g>
<g>
</g>
<g>
</g>
<g>
</g>
<g>
</g>
</svg>
