<?xml version="1.0" encoding="iso-8859-1"?>
<!-- Generator: Adobe Illustrator 19.0.0, SVG Export Plug-In . SVG Version: 6.00 Build 0)  -->
<svg xmlns="http://www.w3.org/2000/svg" xmlns:xlink="http://www.w3.org/1999/xlink" version="1.1" id="Layer_1" x="0px" y="0px" viewBox="0 0 512.001 512.001" style="enable-background:new 0 0 512.001 512.001;" xml:space="preserve">
<path style="fill:#512807;" d="M252.028,377.413c-0.01-0.009-0.967-0.956-2.515-2.616c-0.17-0.182-0.348-0.356-0.532-0.523  l-12.565-11.299c-1.32-1.187-2.98-1.93-4.744-2.124c-38.278-4.194-71.368-23.562-98.352-57.565c-2.351-2.962-6.382-4.01-9.877-2.564  c-3.495,1.444-5.611,5.031-5.184,8.79c0.199,1.746,4.258,35.675,21.993,63.672c-15.846-1.214-36.726-0.167-50.978,10.578  c-10.24,7.719-15.651,18.985-16.083,33.486c-0.069,2.291,0.794,4.511,2.39,6.156c1.597,1.644,3.79,2.572,6.082,2.572h90.035  c2.656,0,5.168-1.208,6.771-3.327s2.129-4.829,1.406-7.384c-0.111-0.419-2.622-10.336,4.014-17.508  c8.677-9.378,30.228-11.496,60.677-5.965c3.658,0.665,7.32-1.135,9.034-4.434C255.312,384.057,254.675,380.025,252.028,377.413z"/>
<path style="fill:#D9D9DB;" d="M40.978,177.9c-6.355-2.383-15.154-12.437-19.211-18.221c-2.079-2.976-5.825-4.299-9.31-3.286  c-3.486,1.011-5.942,4.131-6.106,7.757c-0.064,1.417-1.552,34.894,0.034,50.675c0.435,4.332,4.08,7.63,8.433,7.63h17.084  c3.989,0,7.439-2.782,8.284-6.681l6.099-28.143C47.176,183.52,44.917,179.377,40.978,177.9z"/>
<path style="fill:#512807;" d="M511.518,413.026c-16.326-46.348-50.038-80.058-97.492-97.487  c-33.737-12.391-62.876-12.422-66.803-12.374c-2.951-0.09-5.781,1.393-7.401,4.009c-7.608,12.273-17.286,24.496-28.765,36.325  c-3.102,3.197-3.201,8.251-0.224,11.566c29.368,32.708,76.816,72.708,136.086,77.518c4.041,0.328,7.919,0.474,11.628,0.474  c29.453-0.001,47.956-9.219,48.822-9.659C511.155,421.469,512.93,417.033,511.518,413.026z"/>
<path style="fill:#A86B38;" d="M369.196,199.806c-8.173-19.754-37.624-38.905-87.534-56.924  c-38.881-14.037-76.629-22.421-86.836-23.17c-16.752-1.23-36.561-16.03-36.759-16.178c-1.483-1.12-3.214-1.67-4.94-1.703  c-0.185-8.148-1.247-14.409-1.247-14.409c-12.107,0-21.128,3.748-27.688,8.433c-0.476-3.457-3.063-6.402-6.676-7.148  c-1.537-0.316-37.862-7.522-58.338,13.929c-6.137,6.428-16.927,12.278-31.205,16.915c-11.309,3.673-20.765,5.24-20.854,5.255  c-2.275,0.37-4.302,1.649-5.613,3.544c-1.312,1.895-1.795,4.243-1.338,6.502l6.341,31.362c0.231,1.14,0.693,2.221,1.36,3.175  c1.376,1.97,13.828,19.387,27.156,24.385c1.876,0.703,4.18,2.093,6.849,3.701c6.272,3.781,14.453,8.703,27.339,11.604  c1.369,5.32,3.858,14.138,7.766,25.069c-3.891-0.364-7.874-0.849-11.97-1.501c-4.713-2.572-16.976-8.265-26.687-4.013  c-5.15,2.253-8.693,6.895-9.977,13.069c-1.673,8.053-4.296,28.074,7.46,40.027c6.965,7.08,17.029,9.6,29.93,7.505  c5.142,1.06,21.483,4.266,41.358,6.545c13.728,21.128,29.555,38.539,47.091,51.757c15.156,11.424,31.633,19.74,49.207,24.895  c-14.344,1.584-25.102,6.272-32.164,14.046c-12.906,14.211-7.908,32.559-7.688,33.332c1.033,3.649,4.363,6.168,8.155,6.168h157.561  c2.508,0,4.887-1.11,6.497-3.033c1.61-1.922,2.287-4.46,1.848-6.928l-11.366-63.867c23.841-25.345,39.575-51.661,46.789-78.273  C379.971,248.257,378.647,222.644,369.196,199.806z"/>
<g>
	<path style="fill:#8C4A14;" d="M281.662,142.882c-6.652-2.402-13.267-4.634-19.72-6.694c5.087,4.543,11.467,9.709,19.317,15.571   c18.397,12.896,34.342,25.119,44.838,35.15c4.393,3.833,7.94,7.78,10.423,11.817c1.024,1.558,1.78,3.004,2.24,4.322   c16.871,40.772,7.153,93.405-44.225,146.354l14.389,76.574h20.332c2.508,0,4.887-1.11,6.497-3.033   c1.61-1.922,2.287-4.46,1.848-6.928l-11.366-63.867c23.841-25.345,39.575-51.661,46.789-78.273   c6.945-25.619,5.62-51.231-3.83-74.069C361.023,180.053,331.572,160.902,281.662,142.882z"/>
	<path style="fill:#8C4A14;" d="M160.238,86c-0.693-4.074-4.223-7.054-8.356-7.054c-37.699,0-50.12,30.804-50.63,32.116   c-0.959,2.465-0.689,5.114,0.513,7.258c13.149,26.699,43.735,23.329,43.735,23.329c2.327,0,4.645-0.953,6.32-2.824   c6.343-7.089,9.645-18.334,9.811-33.421C161.744,94.985,160.299,86.362,160.238,86z"/>
	<path style="fill:#8C4A14;" d="M192.604,276.837c-2.626,4.231-21.527,23.967-85.51,18.941c5.812,8.945,12.004,17.216,18.54,24.793   C149.249,316.705,181.365,300.668,192.604,276.837z"/>
	<path style="fill:#8C4A14;" d="M69.212,209.078c1.369,5.32,3.858,14.138,7.766,25.069c61.366,5.757,115.626-20.167,115.626-20.167   C147.374,225.494,90.146,216.54,69.212,209.078z"/>
</g>
<path style="fill:#2B2B2B;" d="M76.178,143.498c-5.466,0-9.912-4.438-9.912-9.893c0-5.455,4.447-9.893,9.912-9.893  s9.912,4.438,9.912,9.893C86.091,139.061,81.644,143.498,76.178,143.498z"/>
<g>
</g>
<g>
</g>
<g>
</g>
<g>
</g>
<g>
</g>
<g>
</g>
<g>
</g>
<g>
</g>
<g>
</g>
<g>
</g>
<g>
</g>
<g>
</g>
<g>
</g>
<g>
</g>
<g>
</g>
</svg>
