<?xml version="1.0" encoding="iso-8859-1"?>
<!-- Generator: Adobe Illustrator 19.0.0, SVG Export Plug-In . SVG Version: 6.00 Build 0)  -->
<svg xmlns="http://www.w3.org/2000/svg" xmlns:xlink="http://www.w3.org/1999/xlink" version="1.1" id="Layer_1" x="0px" y="0px" viewBox="0 0 512 512" style="enable-background:new 0 0 512 512;" xml:space="preserve">
<g>
	<path style="fill:#2A2A2C;" d="M463.226,312.827c-4.588-6.008-11.084-14.992-15.979-23.67c-1.477-2.617-4.166-4.362-7.171-4.4   c-0.038-0.001-0.076-0.001-0.117-0.001c-2.936,0-5.598,1.427-7.127,3.937c-0.562,0.775-7.809,10.315-28.004,18.051   c-3.263,1.25-5.418,4.382-5.418,7.878v39.162c-7.477,4.68-21.18,15.095-23.328,29.612c-0.359,2.426,0.355,4.889,1.957,6.745   c1.603,1.857,3.934,2.925,6.387,2.925h41.119c3.283,0,6.267-1.904,7.65-4.881l30.976-66.683   C465.493,318.658,465.129,315.317,463.226,312.827z"/>
	<path style="fill:#2A2A2C;" d="M301.012,322.201l-0.44-1.782c-0.838-3.398-3.686-5.925-7.159-6.351   c-14.074-1.734-29.011-4.246-44.399-7.468c-3.748-0.784-7.56,1.058-9.275,4.485c-0.774,1.55-1.053,3.3-0.8,5.013l6.873,46.232   c-3.066,4.103-8.002,11.647-10.217,20.18c-0.656,2.527-0.105,5.215,1.494,7.28c1.597,2.065,4.06,3.274,6.672,3.274h45.905   c4.488,0,8.19-3.514,8.424-7.996l3.154-60.409C301.288,323.834,301.209,323.004,301.012,322.201z"/>
</g>
<path style="fill:#56555B;" d="M506.743,194.153c-6.832-27.051-20.368-46.592-41.38-59.739  c-18.578-11.624-66.997-16.746-143.905-15.215c-58.422,1.161-116.467,6.006-131.2,8.277c-23.798,3.668-74.055,18.507-91.008,23.617  c-3.619-3.312-8.326-4.813-13.546-4.251c-9.16,0.982-14.317,7.929-17.223,15.738c-27.222,5.995-35.697,37.798-41.946,61.297  c-2.113,7.95-4.11,15.457-6.234,19.388c-3.293,6.092-6.072,9.756-8.527,12.988c-4.462,5.879-8.315,10.955-10.971,23.836  c-2.23,10.82,0.204,20.456,7.039,27.864c9.108,9.872,25.575,15.131,46.459,15.131c5.547,0,11.407-0.371,17.52-1.126  c14.376-1.774,27.814-11.714,40.065-29.586c22.634,7.276,54.917,25.305,66.103,31.738l0.944,35.506  c-10.944,11.454-12.996,22.368-13.205,23.661c-0.396,2.442,0.3,4.933,1.902,6.817c1.602,1.884,3.951,2.969,6.424,2.969h45.474  c4.148,0,7.68-3.015,8.331-7.111l10.243-64.445c128.216,28.365,181.523,1.029,200.254-14.563  c6.663,10.205,13.867,19.32,17.175,23.381l1.43,26.455c-8.382,11.994-7.532,26.735-7.396,28.497c0.34,4.394,4.004,7.787,8.41,7.787  h41.394c2.355,0,4.602-0.985,6.2-2.716c1.597-1.731,2.398-4.051,2.209-6.399c-0.034-0.425-3.361-43.248,2.323-104.249  C513.454,243.685,512.387,216.502,506.743,194.153z"/>
<g>
	<path style="fill:#3B3B3F;" d="M127.026,241.139c-12.893,2.866-23.998,10.981-30.525,22.462l-10.764,18.933   c-9.422,15.184-22.095,29.162-37.442,31.055c-1.53,0.189-18.7,1.255-34.544-0.553c9.558,6.585,23.599,10.051,40.551,10.051   c5.547,0,11.407-0.371,17.52-1.126c14.232-1.756,27.542-11.529,39.696-29.065c7.159-16.079,13.1-34.211,15.69-51.797   C127.146,241.112,127.085,241.125,127.026,241.139z"/>
	<path style="fill:#3B3B3F;" d="M465.363,134.414c-17.388-10.88-60.918-16.061-129.473-15.427   c44.828,0.944,86.836,12.776,102.504,22.579c40.227,25.169,46.639,74.789,40.81,137.352c-3.877,41.608-3.628,87.839-3.028,114.147   h23.191c2.355,0,4.602-0.985,6.2-2.716c1.597-1.731,2.398-4.051,2.209-6.399c-0.034-0.425-3.361-43.248,2.323-104.249   c3.355-36.015,2.29-63.199-3.354-85.548C499.911,167.102,486.375,147.561,465.363,134.414z"/>
	<path style="fill:#3B3B3F;" d="M203.296,345.068l-7.721,47.998h23.952c4.148,0,7.68-3.015,8.331-7.111l10.243-64.445   C224.776,321.543,205.388,331.906,203.296,345.068z"/>
</g>
<path d="M61.853,239.544c-5.35,0-9.703-4.346-9.703-9.687s4.353-9.687,9.703-9.687c5.351,0,9.704,4.346,9.704,9.687  C71.557,235.198,67.204,239.544,61.853,239.544z"/>
<path style="fill:#3B3B3F;" d="M81.221,204.025c-1.118,0-2.251-0.124-3.391-0.397c-4.556-1.088-10.492-4.832-12.897-16.492  c-0.116-0.561-0.173-1.133-0.173-1.705c0-0.333,0.022-8.232,1.886-16.432c3.875-17.04,12.503-21.454,19.059-22.157  c6.349-0.683,11.942,1.679,15.74,6.649c7.313,9.576,5.818,26.555,2.505,35.016c-0.306,0.784-0.729,1.518-1.254,2.177  C100.03,194.032,91.228,204.025,81.221,204.025z"/>
<g>
</g>
<g>
</g>
<g>
</g>
<g>
</g>
<g>
</g>
<g>
</g>
<g>
</g>
<g>
</g>
<g>
</g>
<g>
</g>
<g>
</g>
<g>
</g>
<g>
</g>
<g>
</g>
<g>
</g>
</svg>
