<?xml version="1.0" encoding="iso-8859-1"?>
<!-- Generator: Adobe Illustrator 19.0.0, SVG Export Plug-In . SVG Version: 6.00 Build 0)  -->
<svg xmlns="http://www.w3.org/2000/svg" xmlns:xlink="http://www.w3.org/1999/xlink" version="1.1" id="Layer_1" x="0px" y="0px" viewBox="0 0 512.002 512.002" style="enable-background:new 0 0 512.002 512.002;" xml:space="preserve">
<g>
	<path style="fill:#56555B;" d="M393.707,407.329l-7.555-60.187l4.618-16.284c0.545-1.923,0.385-3.988-0.442-5.806   c-0.826-1.817-2.269-3.282-4.072-4.135c-17.093-8.089-40.245-22.787-53.477-46.871c-1.482-2.698-4.317-4.375-7.395-4.375h-1.775   c-1.494,0-2.962,0.396-4.252,1.15c-9.526,5.559-20.784,9.675-33.459,12.233c-4.383,0.884-7.314,5.043-6.681,9.471   c0.09,0.631,0.252,1.248,0.48,1.842c0.84,2.181,20.226,51.412,58.992,63.545l10.307,44.189   c-7.028,5.982-19.45,19.001-21.889,37.871c-0.31,2.406,0.43,4.83,2.032,6.652c1.602,1.821,3.912,2.866,6.337,2.866h42.092   c2.441,0,4.762-1.057,6.365-2.899c1.602-1.842,2.328-4.286,1.991-6.704c-0.019-0.141-1.726-14.363,6.473-26.887   C393.491,411.326,393.956,409.316,393.707,407.329z"/>
	<path style="fill:#56555B;" d="M209.717,414.211l8.72-122.278c0.173-2.44-0.726-4.842-2.456-6.572   c-1.266-1.264-2.899-2.094-4.665-2.37c-20.429-3.186-34.751-7.62-34.888-7.662c-2.513-0.785-5.249-0.355-7.398,1.165   c-2.149,1.522-3.464,3.959-3.556,6.59l-4.414,125.726c-12.581,10.928-12.186,26.803-9.927,34.449   c0.97,3.59,4.251,6.232,8.148,6.232h46.381c3.311,0,6.317-1.938,7.685-4.953c1.367-3.017,0.844-6.553-1.339-9.045   c-6.604-7.535-2.787-18.968-2.766-19.027C209.501,415.74,209.662,414.981,209.717,414.211z"/>
</g>
<g>
	<path style="fill:#1D1D1E;" d="M511.043,302.15c-0.107-0.205-10.627-20.657-8.902-44.75c0.053-0.723,0.121-1.573,0.201-2.538   c1.374-16.794,5.024-61.402-23.158-83.115c-18.521-14.27-46.469-14.95-83.069-2.026c-3.88,1.371-6.207,5.343-5.503,9.398   c0.701,4.045,4.211,6.996,8.314,6.996c0.01,0,0.022,0,0.033,0c0.128,0,9.686,0.114,19.916,5.102   c13.705,6.682,22.027,18.776,24.74,35.944c3.916,24.794,7.011,44.375,14.643,59.019c8.689,16.673,22.764,25.652,44.296,28.253   c0.339,0.04,0.677,0.061,1.012,0.061c2.748,0,5.353-1.343,6.94-3.639C512.286,308.277,512.493,304.926,511.043,302.15z"/>
	<path style="fill:#1D1D1E;" d="M251.291,169.972c-5.247-3.779-12.88-12.567-21.72-22.743   c-13.127-15.112-31.105-35.807-54.484-55.549C125.96,50.195,45.466,64.918,42.062,65.565c-3.98,0.757-6.861,4.238-6.861,8.289   v36.705c0,3.055,1.672,5.859,4.337,7.351c2.667,1.492,5.95,1.415,8.554-0.186c2.132-1.308,52.923-31.295,114.331,34.837   c21.232,22.866,43.482,33.535,70.734,33.535c4.593,0,9.329-0.304,14.225-0.902c3.448-0.422,6.285-2.913,7.148-6.277   C255.396,175.552,254.11,172.002,251.291,169.972z"/>
</g>
<path style="fill:#8A8990;" d="M472.17,410.479l-17.613-93.243c-0.385-2.035-1.505-3.859-3.147-5.121  c-0.264-0.204-26.455-20.381-41.544-34.602c-0.827-3.141,2.726-13.941,5.096-21.142c4.925-14.969,11.056-33.597,8.565-51.632  c-3.032-21.953-18.146-37.844-44.922-47.231c-36.236-12.709-68.937-4.204-97.789,3.296c-37.911,9.856-70.655,18.369-106.026-19.724  c-36.857-39.691-71.417-48.023-93.92-48.023c-14.753,0-26.406,3.471-33.608,6.397C38.063,85.81,21.524,76.399,19.348,75.198  c-2.175-1.199-4.765-1.38-7.084-0.494c-2.319,0.885-4.131,2.746-4.952,5.088c-21.491,61.244,11.099,149.171,12.496,152.883  c1.027,2.726,3.386,4.729,6.243,5.301c3.936,0.786,7.631,1.132,11.092,1.131c23.541-0.002,36.04-15.934,36.633-16.711  c1.647-2.152,2.142-5.02,1.36-7.615c-0.196-0.649-4.617-15.87,4.805-30.1c6.028,7.352,13.426,19.837,12.889,36.462  c-0.073,2.283-0.16,4.542-0.243,6.776c-1.098,29.142-2.232,59.277,28.987,76.222c5.356,2.907,11.637,18.14,13.201,52.178  c0.873,18.998-0.003,37.294-0.465,44.856c-7.876,6.528-26.16,23.961-21.669,41.927c0.939,3.756,4.314,6.391,8.185,6.391h38.452  c2.682,0,5.215-1.235,6.806-3.394c1.59-2.159,2.071-4.905,1.276-7.467c-0.349-1.209-3.118-12.005,6.67-18.531  c2.26-1.506,3.657-4.009,3.752-6.725l4.18-119.063c9.914,2.454,25.992,5.848,44.876,7.634c38.37,3.633,70.272-0.874,95.042-13.336  c9.215,14.274,22.118,26.834,38.516,37.301c19.291,12.313,38.138,18.417,46.483,20.727l21.939,54.581  c-22.707,13.302-25.053,37.977-25.151,39.126c-0.198,2.352,0.599,4.679,2.197,6.417c1.598,1.738,3.85,2.727,6.211,2.727h39.369  c4.661,0,8.437-3.778,8.437-8.437c0-12.74,9.89-22.969,9.962-23.043C471.817,416.039,472.688,413.22,472.17,410.479z"/>
<g>
	<path style="fill:#666568;" d="M142.958,141.078c25.543,27.508,49.715,30.711,75.453,26.656   c-14.461-2.931-28.811-10.706-43.621-26.656c-36.857-39.691-71.417-48.023-93.92-48.023c-5.797,0-11.107,0.54-15.865,1.368   C86.404,98.047,113.97,109.86,142.958,141.078z"/>
	<path style="fill:#666568;" d="M472.17,410.479l-17.613-93.243c-0.385-2.035-1.505-3.859-3.147-5.121   c-0.264-0.204-26.455-20.381-41.544-34.602c-0.827-3.141,2.726-13.941,5.096-21.142c4.925-14.969,11.056-33.597,8.565-51.632   c-3.032-21.953-18.146-37.844-44.922-47.231c-19.478-6.831-37.932-7.529-55.319-5.553c7.654,0.976,15.484,2.746,23.486,5.553   c26.776,9.388,41.889,25.28,44.922,47.231c2.492,18.036-3.639,36.664-8.565,51.632c-2.37,7.201-5.924,18.001-5.096,21.142   c15.089,14.221,41.279,34.399,41.544,34.602c1.641,1.262,2.762,3.086,3.147,5.121l17.613,93.243   c0.517,2.742-0.352,5.56-2.324,7.533c-0.072,0.074-9.962,10.301-9.962,23.043c0,4.66-3.777,8.437-8.437,8.437h31.831   c4.661,0,8.437-3.778,8.437-8.437c0-12.74,9.89-22.969,9.962-23.043C471.817,416.039,472.688,413.22,472.17,410.479z"/>
	<path style="fill:#666568;" d="M73.292,148.034C74.463,149.029,72.384,146.889,73.292,148.034L73.292,148.034z"/>
	<path style="fill:#666568;" d="M73.292,148.034c-7.413,9.156-18.036,22.695-19.34,25.716c-0.801,1.855-1.837,3.755-3.16,5.687   c-12.432,18.148-6.217,37.833-6.217,37.833s-14.215,9.174-25.372,13.753c0.309,0.861,0.519,1.42,0.605,1.651   c1.027,2.726,3.386,4.729,6.243,5.301c3.936,0.786,7.631,1.132,11.092,1.131c23.541-0.002,36.04-15.934,36.633-16.711   c1.647-2.152,2.142-5.02,1.36-7.615c-0.186-0.617-4.185-14.414,3.528-28.005c0.129-0.235,0.263-0.469,0.403-0.703   c0.278-0.465,0.568-0.928,0.874-1.392C87.885,173.086,77.798,154.559,73.292,148.034z"/>
</g>
<path d="M37.355,169.499c-5.352,0-9.705-4.347-9.705-9.689s4.354-9.689,9.705-9.689c5.353,0,9.706,4.347,9.706,9.689  C47.061,165.151,42.708,169.499,37.355,169.499z"/>
<g>
</g>
<g>
</g>
<g>
</g>
<g>
</g>
<g>
</g>
<g>
</g>
<g>
</g>
<g>
</g>
<g>
</g>
<g>
</g>
<g>
</g>
<g>
</g>
<g>
</g>
<g>
</g>
<g>
</g>
</svg>
