<?xml version="1.0" encoding="iso-8859-1"?>
<!-- Generator: Adobe Illustrator 19.0.0, SVG Export Plug-In . SVG Version: 6.00 Build 0)  -->
<svg xmlns="http://www.w3.org/2000/svg" xmlns:xlink="http://www.w3.org/1999/xlink" version="1.1" id="Layer_1" x="0px" y="0px" viewBox="0 0 497.647 497.647" style="enable-background:new 0 0 497.647 497.647;" xml:space="preserve">
<g>
	<path style="fill:#493625;" d="M215.212,327.293c-1.767-1.561-4.119-2.288-6.456-1.991c-19.97,2.5-34.502,3.609-34.646,3.62   c-3.815,0.288-6.926,3.171-7.503,6.952L148.58,454.102c-0.36,2.368,0.33,4.774,1.89,6.592c1.561,1.816,3.835,2.861,6.231,2.861   h34.243c3.835,0,7.16-2.654,8.009-6.394l18.833-82.877c0.136-0.598,0.204-1.207,0.204-1.82v-39.011   C217.991,331.096,216.979,328.853,215.212,327.293z"/>
	<path style="fill:#493625;" d="M373.172,353.026c-22.008-21.008-31.94-58.562-32.036-58.933c-0.794-3.081-3.294-5.424-6.419-6.019   c-3.126-0.595-6.313,0.668-8.181,3.243c-2.939,4.047-12.541,12.087-43.821,20.464c-2.684,0.718-4.822,2.746-5.684,5.387   c-0.573,1.754-13.759,43.195,9.249,62.249c9.067,7.508,14.269,12.726,17.127,15.917l-16.973,22.357   c-9.241,3.504-38.885,16.035-45.705,34.847c-0.912,2.519-0.541,5.323,0.997,7.515c1.538,2.193,4.048,3.498,6.726,3.498h53.822   c2.476,0,4.82-1.118,6.381-3.04l49.416-60.943c0.451-0.557,0.828-1.17,1.12-1.826l15.813-35.428   C376.417,359.143,375.685,355.424,373.172,353.026z"/>
</g>
<path style="fill:#512807;" d="M471.669,341.667c-3.634,0-6.957-2.43-7.934-6.108c-1.324-4.985-3.305-10.244-5.403-15.813  c-4.755-12.626-10.146-26.937-11.374-45.972c-2.093-32.431-17.085-58.372-44.561-77.104c-20.792-14.175-40.938-18.628-41.14-18.671  c-4.434-0.955-7.256-5.325-6.301-9.759c0.956-4.434,5.328-7.251,9.759-6.301c0.95,0.204,23.517,5.191,46.934,21.157  c31.422,21.423,49.3,52.412,51.699,89.621c1.071,16.59,5.79,29.12,10.354,41.237c2.247,5.965,4.37,11.602,5.906,17.387  c1.164,4.384-1.447,8.882-5.831,10.047C473.076,341.578,472.367,341.667,471.669,341.667z"/>
<path style="fill:#B79274;" d="M432.024,376.444c-2.135-15.795-5.142-28.107-7.558-38c-3.898-15.956-6.473-26.498-3.475-40.592  c2.718-12.785,6.663-38.118,2.536-64.134c-5.054-31.863-21.108-54.985-46.422-66.868c-27.969-13.129-49.075-10.484-71.422-7.682  c-23.588,2.957-47.977,6.017-86.875-7.293c-4.294-1.47-8.963,0.819-10.431,5.112c-1.469,4.292,0.82,8.962,5.112,10.429  c1.362,0.467,2.708,0.912,4.04,1.343c2.842,25.236-2.81,45.838-2.81,45.838c-5.41-9.919-19.839-17.134-19.839-17.134  c11.723,31.562-32.464,84.934-32.464,84.934c-0.529-6.78-5.714-11.246-9.909-13.783l-8.987,15.387  c-3.865,9.772-9.971,19.574-14.209,25.818c-1.346-0.964-2.99-1.537-4.767-1.537c-0.035,0-0.069,0-0.104,0.001  c-4.536,0.056-8.168,3.778-8.111,8.315l1.252,100.792c-3.081,1.24-6.974,3.073-10.95,5.645  c-12.019,7.776-19.251,18.575-20.915,31.23c-0.309,2.345,0.41,4.709,1.968,6.487c1.56,1.779,3.81,2.798,6.176,2.798h62.84  c4.1,0,7.572-3.024,8.136-7.085l15.497-111.589c10.88-0.97,38.079-3.671,66.662-8.641c39.775-6.915,66.916-15.327,82.21-25.536  c5.171,14.355,15.601,37.955,32.625,54.205c16.671,15.913,23.405,31.894,18.03,42.77c-1.241,1.757-7.88,5.084-12.281,7.288  c-13.996,7.013-35.149,17.61-36.046,40.044c-0.09,2.234,0.736,4.407,2.285,6.019c1.549,1.612,3.688,2.523,5.923,2.523h54.495  c2.267,0,4.433-0.936,5.985-2.588c0.387-0.412,9.56-10.243,18.048-25.335C429.742,415.227,434.498,394.761,432.024,376.444z"/>
<path style="fill:#6E563D;" d="M391.052,296.144c-5.464,25.693,5.464,40.968,10.928,81.401  c3.835,28.383-20.974,66.066-36.103,86.008h28.358c2.267,0,4.433-0.936,5.985-2.588c0.387-0.412,9.56-10.243,18.048-25.335  c11.474-20.403,16.231-40.869,13.757-59.186c-2.135-15.795-5.142-28.107-7.558-38c-3.898-15.956-6.473-26.498-3.475-40.592  c2.718-12.785,6.663-38.118,2.536-64.134c-5.054-31.863-21.108-54.985-46.422-66.868c-27.969-13.129-49.075-10.484-71.422-7.682  c9.271,1,35.1,9.987,46.027,15.116C405.258,199.42,396.516,270.451,391.052,296.144z"/>
<path style="fill:#A86B38;" d="M226.18,172.966c-1.797-24.441-10.035-45.506-24.08-61.972c2.404-0.001,4.686-1.056,6.246-2.886  c1.561-1.831,2.24-4.254,1.859-6.629c-0.093-0.586-2.412-14.522-12.023-29.462c-8.94-13.895-26.102-31.435-57.09-36.083  c-34.588-5.189-63.7,0.675-81.977,16.509c-13.838,11.988-21.087,29.328-20.964,50.146c0.02,3.302,2.014,6.271,5.064,7.537  c3.05,1.265,6.56,0.584,8.914-1.733c8.263-8.137,15.35-14.781,18.119-17.354c4.963-1.285,10.14,1.928,12.903,4.072  c9.648,7.493,16.346,21.635,14.93,31.527c-0.748,5.224-3.697,8.785-9.018,10.885c-35.831,14.145-55.034,37.133-55.834,38.106  c-1.762,2.141-2.326,5.027-1.497,7.673c0.828,2.647,2.935,4.697,5.604,5.452l18.994,5.371c-5.096,15.106-12.37,47.37,0.965,84.569  c1.001,2.791,3.427,4.825,6.35,5.325c2.921,0.495,5.888-0.617,7.757-2.918l2.946-3.626c6.866,14.003,20.976,35.169,46.894,46.548  c1.067,0.469,2.189,0.694,3.299,0.694c2.487,0,4.913-1.131,6.507-3.198c2.103-2.726,16.921-22.359,22.354-41.09  c0.454,0.806,0.755,1.678,0.828,2.611c0.26,3.337,2.518,6.181,5.708,7.191c3.189,1.011,6.674-0.014,8.807-2.591  c0.471-0.569,11.647-14.136,21.485-31.887c8.528-15.388,13.393-29.067,14.567-40.905c1.09,1.194,2.028,2.434,2.712,3.686  c1.603,2.942,4.831,4.609,8.158,4.226c3.326-0.386,6.086-2.753,6.973-5.982C222.858,215.985,227.955,197.097,226.18,172.966z"/>
<path style="fill:#8C4A14;" d="M226.18,172.966c-1.797-24.441-10.035-45.506-24.08-61.972c2.404-0.001,4.686-1.056,6.246-2.886  c1.561-1.831,2.24-4.254,1.859-6.629c-0.093-0.586-2.412-14.522-12.023-29.462c-8.94-13.895-26.102-31.435-57.09-36.083  c-13.642-2.047-26.427-2.367-38.037-1.04c2.741,0.277,5.518,0.618,8.334,1.04c30.989,4.648,48.15,22.188,57.09,36.083  c9.611,14.941,11.93,28.876,12.023,29.462c0.381,2.375-0.298,4.798-1.859,6.629c-1.56,1.83-3.842,2.885-6.246,2.886  c14.045,16.466,22.283,37.531,24.08,61.972c1.774,24.131-3.323,43.019-3.541,43.811c-0.888,3.229-3.647,5.595-6.973,5.982  c-3.327,0.382-6.555-1.286-8.158-4.226c-0.683-1.254-1.622-2.493-2.712-3.686c-1.174,11.838-6.039,25.517-14.567,40.905  c-9.838,17.752-21.014,31.319-21.485,31.887c-2.133,2.577-5.618,3.602-8.808,2.591c-3.19-1.011-5.449-3.855-5.708-7.191  c-0.073-0.933-0.375-1.804-0.828-2.611c-3.857,13.297-12.439,27.041-17.849,34.876c4.595,3.257,9.71,6.223,15.392,8.718  c1.067,0.469,2.189,0.694,3.299,0.694c2.487,0,4.913-1.131,6.507-3.198c2.103-2.726,16.921-22.359,22.354-41.09  c0.454,0.806,0.755,1.678,0.828,2.611c0.26,3.337,2.518,6.181,5.708,7.191c3.189,1.011,6.674-0.014,8.808-2.591  c0.471-0.569,11.647-14.136,21.485-31.887c8.528-15.388,13.393-29.067,14.567-40.905c1.09,1.194,2.028,2.434,2.712,3.686  c1.603,2.942,4.831,4.609,8.158,4.226c3.326-0.386,6.086-2.753,6.973-5.982C222.858,215.985,227.955,197.097,226.18,172.966z"/>
<path style="fill:#B79274;" d="M156.494,69.205c-7.497-7.308-17.967-8.869-29.482-4.398c-7.485,2.906-13.013,7.371-13.619,7.871  c-3.475,2.866-3.994,7.997-1.163,11.499l22.216,27.489c1.397,1.729,3.437,2.818,5.651,3.018c0.246,0.023,0.493,0.033,0.738,0.033  c1.959,0,3.865-0.702,5.361-1.991c1.647-1.42,16.106-14.275,16.537-28.313C162.912,78.616,160.754,73.356,156.494,69.205z"/>
<path style="fill:#A86B38;" d="M474.067,325.237c-13.002,0-23.579,10.577-23.579,23.579c0,5.579,2.609,17.47,6.068,27.663  c5.688,16.759,11.788,24.232,19.775,24.232c10.738,0,15.125-13.399,17.747-25.073c2.233-9.943,3.568-21.446,3.568-26.822  C497.647,335.816,487.069,325.237,474.067,325.237z"/>
<path style="fill:#FFDCAF;" d="M93.228,82.137c-10.01-7.775-20.822-9.862-30.441-5.884c-0.891,0.369-1.711,0.891-2.421,1.545  c-1.874,1.724-46.03,42.446-59.082,62.956c-1.576,2.478-1.711,5.608-0.35,8.212c0.611,1.171,15.194,28.777,34.797,39.144  c1.21,0.641,2.523,0.948,3.824,0.948c2.389,0,4.737-1.039,6.344-2.975c0.172-0.206,17.514-20.776,49.195-33.281  c10.823-4.272,17.659-12.738,19.248-23.838C116.615,113.098,107.735,93.403,93.228,82.137z"/>
<path d="M68.633,124.247c-5.246,0-9.515-4.261-9.515-9.497c0-5.237,4.268-9.499,9.515-9.499c5.247,0,9.515,4.261,9.515,9.499  C78.148,119.985,73.88,124.247,68.633,124.247z"/>
<path d="M22.864,165.785c0.705-0.426,1.361-0.96,1.933-1.612c6.936-7.914,9.964-16.02,9-24.095  c-1.303-10.921-9.516-16.992-10.448-17.648c-1.222-1.345-2.765-2.449-4.474-3.364c-7.297,7.97-13.776,15.694-17.591,21.689  c-1.576,2.478-1.711,5.608-0.35,8.212c0.381,0.729,6.182,11.714,15.241,22.401L22.864,165.785z"/>
<g>
</g>
<g>
</g>
<g>
</g>
<g>
</g>
<g>
</g>
<g>
</g>
<g>
</g>
<g>
</g>
<g>
</g>
<g>
</g>
<g>
</g>
<g>
</g>
<g>
</g>
<g>
</g>
<g>
</g>
</svg>
