<?xml version="1.0" encoding="iso-8859-1"?>
<!-- Generator: Adobe Illustrator 19.0.0, SVG Export Plug-In . SVG Version: 6.00 Build 0)  -->
<svg xmlns="http://www.w3.org/2000/svg" xmlns:xlink="http://www.w3.org/1999/xlink" version="1.1" id="Layer_1" x="0px" y="0px" viewBox="0 0 511.999 511.999" style="enable-background:new 0 0 511.999 511.999;" xml:space="preserve">
<path style="fill:#B99C80;" d="M511.934,370.999c-0.475-3.81-3.456-6.823-7.262-7.336l-53.192-7.169l34.113-15.111  c3.343-1.481,5.356-4.945,4.989-8.582c-0.368-3.639-3.033-6.628-6.605-7.411l-51.824-11.349l40.37-15.643  c3.385-1.311,5.557-4.639,5.392-8.266c-0.163-3.627-2.624-6.745-6.114-7.748l-23.892-6.863l52.609-20.833  c3.5-1.386,5.663-4.919,5.304-8.666c-0.356-3.748-3.148-6.807-6.847-7.508l-41.186-7.786l45.635-17.132  c3.73-1.4,5.976-5.213,5.393-9.154c-0.583-3.941-3.835-6.94-7.811-7.202l-50.986-3.352l31.535-19.636  c3.067-1.91,4.583-5.558,3.771-9.078c-0.812-3.52-3.771-6.138-7.363-6.512l-40.667-4.243l17.348-17.199  c2.396-2.375,3.151-5.947,1.92-9.089c-1.23-3.142-4.208-5.251-7.581-5.369l-71.672-2.49l12.494-29.039  c1.135-2.64,0.854-5.675-0.751-8.06c-1.603-2.385-4.356-3.791-7.181-3.737c-38.415,0.743-90.32,24.282-119.488,39.202l8.142-18.16  c1.397-3.117,0.783-6.768-1.558-9.255c-2.341-2.489-5.946-3.323-9.143-2.118l-81.444,30.713l-35.745-0.449l-8.185-9.786  c-2.026-2.423-5.239-3.517-8.317-2.831c-42.944,9.52-74.854,60.673-78.185,66.189c-20.253,27.378-16.977,65.557-16.826,67.176  c0.29,3.127,2.289,5.836,5.191,7.036c2.904,1.2,6.232,0.69,8.644-1.32c6.33-5.278,11.754-9.254,13.683-10.642  c21.863-8.851,30.284-10.991,54.688,0.221c21.81,10.021,41.525,10.889,57.366,11.586c5.284,0.232,10.278,0.452,14.751,0.986  c0.837,0.26,7.027,2.985,21.572,28.859c9.492,16.885,18.937,37.084,26.526,53.314c3.833,8.198,7.143,15.278,9.633,20.132  c5.26,10.257,20.268,18.717,47.229,26.626c20.106,5.898,42.511,10.139,57.873,12.677l15.101,2.294  c0.247,0.037,0.495,0.064,0.744,0.079c1.563,0.097,17.009,1.023,37.9,1.023c32.277-0.001,77.546-2.21,104.661-13.093  C510.256,378.461,512.409,374.81,511.934,370.999z"/>
<g>
	<path style="fill:#A38166;" d="M378.228,355.409c-0.299-4.66-4.295-8.192-8.979-7.9c-26.483,1.693-116.598-9.364-117.504-9.474   c-4.625-0.574-8.856,2.722-9.428,7.358c-0.572,4.636,2.722,8.856,7.358,9.428c3.482,0.43,79.611,9.767,113.279,9.767   c2.764,0,5.247-0.063,7.375-0.198C374.99,364.091,378.526,360.071,378.228,355.409z"/>
	<path style="fill:#A38166;" d="M354.132,330.158c4.655-0.379,8.121-4.461,7.742-9.116c-0.38-4.655-4.461-8.121-9.117-7.742   c-35.843,2.922-112.713,0.007-113.485-0.023c-4.669-0.15-8.597,3.458-8.776,8.126c-0.18,4.667,3.457,8.597,8.124,8.777   c2.102,0.081,35.501,1.346,68.602,1.346C324.415,331.527,341.532,331.185,354.132,330.158z"/>
	<path style="fill:#A38166;" d="M372.969,282.446c-0.86-4.59-5.277-7.615-9.87-6.755c-31.83,5.963-135.63,12.494-136.676,12.559   c-4.662,0.291-8.204,4.306-7.914,8.968c0.28,4.482,4.003,7.93,8.433,7.93c0.177,0,0.356-0.006,0.536-0.017   c4.307-0.27,105.889-6.662,138.735-12.816C370.804,291.454,373.829,287.036,372.969,282.446z"/>
	<path style="fill:#A38166;" d="M112.331,167.823c4.123-2.194,5.685-7.316,3.491-11.44c-2.194-4.124-7.314-5.687-11.44-3.492   c-35.039,18.653-46.996,66.725-47.488,68.761c-1.095,4.536,1.693,9.098,6.228,10.198c0.67,0.162,1.34,0.24,1.998,0.24   c3.809,0,7.27-2.595,8.212-6.459C73.439,225.208,84.055,182.875,112.331,167.823z"/>
	<path style="fill:#A38166;" d="M161.038,162.954c4.294-1.84,6.282-6.811,4.442-11.105c-1.839-4.293-6.812-6.282-11.105-4.442   c-47.715,20.449-66.743,67.638-67.529,69.636c-1.712,4.347,0.426,9.257,4.771,10.967c1.017,0.4,2.065,0.59,3.095,0.59   c3.373,0,6.562-2.033,7.871-5.362C102.752,222.814,119.742,180.652,161.038,162.954z"/>
	<path style="fill:#A38166;" d="M207.798,168.438c4.462-1.381,6.961-6.117,5.579-10.579c-1.38-4.462-6.11-6.958-10.579-5.579   c-64.233,19.875-92.174,69.26-93.333,71.353c-2.257,4.081-0.781,9.21,3.294,11.478c1.299,0.723,2.707,1.066,4.098,1.066   c2.968,0,5.85-1.566,7.4-4.338C124.511,231.382,150.305,186.227,207.798,168.438z"/>
	<path style="fill:#A38166;" d="M312.557,260.872c-0.739-4.612-5.071-7.752-9.688-7.013c-26.994,4.326-88.944,9.704-89.568,9.758   c-4.653,0.403-8.1,4.501-7.696,9.154c0.38,4.406,4.074,7.729,8.415,7.729c0.245,0,0.492-0.01,0.739-0.032   c2.566-0.222,63.184-5.487,90.786-9.908C310.156,269.822,313.295,265.484,312.557,260.872z"/>
	<path style="fill:#A38166;" d="M348.656,221.147c4.168-2.107,5.84-7.194,3.732-11.363c-2.107-4.17-7.193-5.84-11.363-3.732   c-34.577,17.478-137.753,41.455-138.791,41.695c-4.55,1.053-7.386,5.595-6.333,10.145c0.904,3.909,4.384,6.553,8.232,6.553   c0.63,0,1.273-0.071,1.914-0.219C210.367,263.228,312.261,239.545,348.656,221.147z"/>
	<path style="fill:#A38166;" d="M193.956,193.336c-2.257-4.089-7.404-5.571-11.491-3.314c-31.014,17.133-44.769,40.969-45.34,41.975   c-2.304,4.064-0.876,9.224,3.187,11.527c1.317,0.746,2.749,1.102,4.162,1.102c2.945,0,5.808-1.543,7.364-4.288   c0.117-0.205,11.926-20.662,38.805-35.511C194.731,202.569,196.215,197.424,193.956,193.336z"/>
	<path style="fill:#A38166;" d="M312.038,147.681c-1.764-4.325-6.698-6.403-11.022-4.641   c-71.209,29.013-130.334,84.637-132.816,86.99c-3.388,3.215-3.531,8.568-0.317,11.956c1.663,1.753,3.898,2.637,6.138,2.637   c2.091,0,4.182-0.769,5.818-2.321c0.585-0.555,59.267-55.775,127.559-83.599C311.722,156.942,313.801,152.007,312.038,147.681z"/>
	<path style="fill:#A38166;" d="M299.915,199.594c4.195-2.054,5.93-7.12,3.874-11.314c-2.053-4.195-7.119-5.93-11.314-3.876   l-103.458,50.673c-4.195,2.055-5.93,7.12-3.876,11.314c1.468,2.998,4.474,4.739,7.601,4.739c1.248,0,2.517-0.277,3.713-0.864   L299.915,199.594z"/>
</g>
<path style="fill:#A86B38;" d="M372.077,379.466c-1.295-2.369-3.643-3.977-6.32-4.329c-0.25-0.033-25.33-3.356-51.582-9.494  c-36.952-8.642-53.124-17.585-55.938-23.074c-2.349-4.58-5.6-11.531-9.362-19.579c-27.74-59.323-44.838-89.808-61.309-91.79  c-5.132-0.617-10.469-0.852-16.118-1.102c-15.116-0.664-32.248-1.419-51.049-10.057c-29.62-13.609-43.118-10.676-69.032-0.151  c-0.587,0.239-1.148,0.544-1.668,0.908c-7.982,5.587-47.887,34.62-49.581,57.493c-0.746,10.081,2.062,18.745,8.123,25.059  c7.73,8.051,20.486,12.019,36.945,11.468c8.937-0.293,22.879,0.889,35.179,5.111c6.475,2.223,17.599,7.124,19.343,14.98  c2.941,13.231-0.944,43.003-3.543,58.623c-8.967,2.374-24.564,8.397-26.946,21.905c-0.601,3.404,0.93,6.832,3.869,8.654  c0.74,0.46,14,8.473,37.002,8.472c8.201-0.001,17.644-1.019,28.195-3.762c2.396-0.624,4.399-2.265,5.479-4.492l26.901-55.434  c16.542,7.857,56.079,25.458,86.617,29.685c-5.908,4.71-11.998,11.412-11.618,20.91c0.134,3.347,2.229,6.299,5.345,7.529  c1.248,0.492,31.19,11.933,85.001,0.403c0.827-0.177,1.621-0.477,2.36-0.891c0.855-0.478,21.061-12.026,33.939-39.388  C373.458,384.68,373.372,381.835,372.077,379.466z"/>
<g>
	<path style="fill:#7C4212;" d="M113.603,420.617c-5.203,1.353-32.742,4.605-37.316,5.154c5.286,2.478,16.914,6.794,33.802,6.794   c8.201-0.001,17.644-1.019,28.195-3.762c2.396-0.624,4.399-2.265,5.479-4.492l26.901-55.434l-22.34-17.595L113.603,420.617z"/>
	<path style="fill:#7C4212;" d="M372.309,387.123c1.15-2.442,1.063-5.287-0.231-7.656c-1.295-2.369-3.643-3.977-6.32-4.329   c-0.25-0.033-25.33-3.356-51.582-9.494c-36.952-8.642-53.124-17.585-55.938-23.074c-2.349-4.58-5.6-11.531-9.362-19.579   c-27.74-59.323-44.838-89.808-61.309-91.79c-5.132-0.617-10.469-0.852-16.118-1.102c-15.116-0.664-32.248-1.419-51.049-10.057   c-28.889-13.274-42.45-10.807-67.143-0.911c16.474,2.863,36.542,6.52,41.061,8.597c27.45,12.612,51.19,9.644,69.688,11.87   c18.498,2.226,51.98,83.091,64.155,106.831c12.175,23.741,113.946,37.094,113.946,37.094   c-11.87,25.225-30.417,35.611-30.417,35.611c-7.155,1.532-29.043,6.925-47.698,11.198c13.756,2.485,38.157,4.327,72.021-2.93   c0.827-0.177,1.621-0.477,2.36-0.891C339.225,426.032,359.431,414.486,372.309,387.123z"/>
</g>
<path style="fill:#5E310D;" d="M99.462,260.241c-0.821,0-1.654-0.121-2.478-0.373c-4.466-1.367-6.978-6.096-5.612-10.562  c1.028-3.358,0.558-7.042-1.289-10.106c-2.155-3.575-5.94-5.97-10.943-6.925c-1.13-0.215-2.622-0.346-3.335,0.253  c-1.518,1.274-2.259,5.388-2.232,7.235c0.071,4.671-3.658,8.513-8.328,8.584c-4.708,0.071-8.513-3.658-8.583-8.327  c-0.021-1.364,0.035-13.53,8.263-20.442c3.2-2.689,8.813-5.552,17.387-3.916c9.714,1.855,17.619,7.113,22.257,14.805  c4.324,7.173,5.41,15.844,2.978,23.79C106.431,257.898,103.082,260.241,99.462,260.241z"/>
<path style="fill:#2B2B2B;" d="M46.343,279.541c-5.388,0-9.771-4.375-9.771-9.753s4.383-9.753,9.771-9.753  c5.387,0,9.77,4.375,9.77,9.753S51.73,279.541,46.343,279.541z"/>
<path style="fill:#A38166;" d="M504.672,363.662l-53.192-7.169l34.113-15.111c3.343-1.481,5.356-4.945,4.989-8.582  c-0.368-3.639-3.033-6.628-6.605-7.411l-51.824-11.349l40.37-15.643c3.385-1.311,5.557-4.639,5.392-8.266  c-0.163-3.628-2.624-6.745-6.114-7.748l-23.892-6.863l52.609-20.833c3.5-1.386,5.663-4.919,5.304-8.666  c-0.356-3.748-3.148-6.807-6.847-7.508l-41.186-7.786l45.635-17.132c3.73-1.4,5.976-5.213,5.393-9.154  c-0.583-3.941-3.835-6.94-7.811-7.202l-50.986-3.352l31.535-19.636c3.067-1.91,4.583-5.558,3.771-9.078  c-0.812-3.52-3.771-6.138-7.363-6.512l-40.667-4.243l17.348-17.199c2.396-2.375,3.151-5.947,1.92-9.088  c-1.23-3.142-4.208-5.251-7.581-5.369l-71.672-2.49l12.494-29.039c1.135-2.64,0.854-5.675-0.751-8.06  c-1.603-2.385-4.356-3.791-7.181-3.737c-8.283,0.16-17.197,1.385-26.371,3.35l-18.911,59.628l71.866,3.304l-26.018,27.819  l45.856,5.586l-37.176,30.091l42.536,4.204l-39.654,22.776l54.69,13.663L392.93,279.54l25.186,12.117l-42.934,25.413l58.206,21.209  l-47.461,26.253l47.461,6.591l-55.93,21.445c6.488,0.221,14.951,0.418,24.574,0.418c32.277-0.001,77.546-2.21,104.661-13.093  c3.563-1.431,5.716-5.083,5.241-8.893C511.459,367.19,508.478,364.175,504.672,363.662z"/>
<g>
</g>
<g>
</g>
<g>
</g>
<g>
</g>
<g>
</g>
<g>
</g>
<g>
</g>
<g>
</g>
<g>
</g>
<g>
</g>
<g>
</g>
<g>
</g>
<g>
</g>
<g>
</g>
<g>
</g>
</svg>
