<?xml version="1.0" encoding="iso-8859-1"?>
<!-- Generator: Adobe Illustrator 19.0.0, SVG Export Plug-In . SVG Version: 6.00 Build 0)  -->
<svg xmlns="http://www.w3.org/2000/svg" xmlns:xlink="http://www.w3.org/1999/xlink" version="1.1" id="Layer_1" x="0px" y="0px" viewBox="0 0 512 512" style="enable-background:new 0 0 512 512;" xml:space="preserve">
<path style="fill:#8A8990;" d="M511.902,385.521c-0.44-3.701-2.294-6.904-5.219-9.017c-2.343-1.691-6.261-4.522-59.047-13.248  c-22.402-3.704-44.334-6.921-49.125-7.618c-7.307-2.84-53.352-20.295-91.36-24.254c-23.72-2.471-52.639-33.575-75.877-58.568  c-12.118-13.034-23.565-25.345-33.283-32.634c-10.66-7.994-22.445-13.989-32.844-19.278c-15.683-7.977-29.226-14.865-30.295-24.129  c-0.356-3.089-0.399-6.685-0.444-10.491c-0.248-20.942-0.624-52.592-54.526-82.748c-1.577-0.882-3.4-1.231-5.192-0.989  c-0.252,0.036-25.607,3.245-49.861-10.513c-2.666-1.512-5.945-1.442-8.545,0.18c-1.727,1.078-16.851,10.967-16.267,26.163  c0.042,1.083,0.294,2.148,0.742,3.133c0.58,1.279,13.937,30.542,29.666,53.273c-0.58,8.975-1.906,36.245,0.915,66.893  c4.187,45.478,15.452,77.368,33.528,94.999c-4.387,5.665-10.889,14.494-16.922,24.345c-15.114,24.678-19.204,42.406-12.5,54.193  c1.428,2.512,4.053,4.108,6.942,4.219c0.577,0.022,14.306,0.524,29.045-1.192c22.672-2.638,35.538-9.084,39.331-19.705  c3.19-8.933,5.334-19.705,6.703-28.508c18.192,15.945,54.011,42.355,91.691,42.355c46.92,0,141.954-2.602,152.111-2.884  c4.861,0.88,28.989,5.156,55.295,8.224c21.082,2.458,36.472,3.327,47.774,3.327c21.447,0,28.158-3.131,31.028-4.47  c1.078-0.503,2.035-1.23,2.809-2.133C502.705,409.161,513.118,395.755,511.902,385.521z"/>
<g>
	<path style="fill:#666568;" d="M102.28,186.18c0.051,4.31,0.099,8.382,0.503,11.88c1.211,10.491,16.547,18.291,34.306,27.324   c11.775,5.988,25.122,12.778,37.192,21.83c11.005,8.254,23.968,22.196,37.69,36.955c26.314,28.301,59.06,63.522,85.922,66.32   c43.038,4.483,95.179,24.248,103.454,27.465c5.425,0.79,30.26,4.433,55.628,8.627c27.765,4.59,43.587,7.738,52.84,9.987   c1.575-3.754,2.498-7.582,2.086-11.048c-0.44-3.701-2.294-6.904-5.219-9.017c-2.343-1.691-6.261-4.522-59.047-13.248   c-22.402-3.704-44.334-6.921-49.125-7.618c-7.307-2.84-53.352-20.295-91.36-24.254c-23.72-2.471-52.639-33.575-75.877-58.568   c-12.118-13.034-23.565-25.345-33.283-32.634c-10.66-7.994-22.445-13.989-32.844-19.278c-15.683-7.977-29.226-14.865-30.295-24.129   c-0.356-3.089-0.399-6.685-0.444-10.491c-0.248-20.942-0.624-52.592-54.526-82.748c-1.577-0.882-3.4-1.231-5.192-0.989   c-0.137,0.019-7.689,0.97-18.442-0.366C101.651,133.284,102.025,164.704,102.28,186.18z"/>
	<path style="fill:#666568;" d="M83.485,399.437c-7.112,8.753-20.555,16.169-43.227,18.807c-0.512,0.059-1.024,0.116-1.534,0.17l0,0   c1.112,0.604,2.355,0.971,3.66,1.021c0.577,0.022,14.306,0.524,29.045-1.192c22.672-2.638,35.538-9.084,39.331-19.705   c3.079-8.622,5.176-18.939,6.55-27.562c0.052-0.434,0.104-0.761,0.154-0.946c-10.908-6.961-19.19-11.315-19.19-11.315   C96.906,367.519,89.825,391.635,83.485,399.437z"/>
</g>
<path style="fill:#2B2B2B;" d="M58.012,143.07c-5.299,0-9.61-4.304-9.61-9.594s4.311-9.594,9.61-9.594s9.611,4.304,9.611,9.594  S63.31,143.07,58.012,143.07z"/>
<g>
</g>
<g>
</g>
<g>
</g>
<g>
</g>
<g>
</g>
<g>
</g>
<g>
</g>
<g>
</g>
<g>
</g>
<g>
</g>
<g>
</g>
<g>
</g>
<g>
</g>
<g>
</g>
<g>
</g>
</svg>
