<?xml version="1.0" encoding="iso-8859-1"?>
<!-- Generator: Adobe Illustrator 19.0.0, SVG Export Plug-In . SVG Version: 6.00 Build 0)  -->
<svg xmlns="http://www.w3.org/2000/svg" xmlns:xlink="http://www.w3.org/1999/xlink" version="1.1" id="Layer_1" x="0px" y="0px" viewBox="0 0 511.998 511.998" style="enable-background:new 0 0 511.998 511.998;" xml:space="preserve">
<path style="fill:#A86B38;" d="M371.79,125.809c-17.235-17.97-53.385-30.573-107.446-37.458  c-39.353-5.012-73.396-5.077-74.826-5.078c-0.001,0-0.001,0-0.002,0c-1.621,0-3.206,0.477-4.558,1.371l-35.383,23.393  c-2.345,1.55-3.741,4.185-3.706,6.996c0.035,2.81,1.495,5.41,3.878,6.902c3.9,2.442,7.643,5.371,11.126,8.705  c1.791,1.715,4.261,2.53,6.717,2.235c0.597-0.073,60.299-7.125,111.584,5.537c19.993,4.937,40.673,5.636,60.994,5.636  c4.042,0,8.073-0.028,12.077-0.055c3.741-0.025,7.455-0.051,11.132-0.053c2.92-0.001,5.623-1.544,7.11-4.057l2.453-4.147  C374.827,132.545,374.358,128.486,371.79,125.809z"/>
<g>
	<path style="fill:#4D4D4F;" d="M450.499,334.836c-0.707-1.65-1.932-3.025-3.49-3.916c-12.234-7.003-22.633-15.312-30.908-24.695   c-1.84-2.086-4.608-3.111-7.361-2.715c-12.975,1.845-27.444,2.864-43.005,3.027c-2.43,0.025-4.723,1.131-6.273,3.002   c-1.55,1.871-2.197,4.341-1.772,6.733c0.303,1.704,1.133,3.269,2.374,4.477l37.429,36.425c-2.593,10.393-8.309,35.663-8.309,56.382   c0,4.564,3.7,8.264,8.264,8.264h34.495c4.106,0,7.588-3.014,8.179-7.076l10.964-75.455   C451.304,337.781,451.1,336.235,450.499,334.836z"/>
	<path style="fill:#4D4D4F;" d="M240.476,332.673c-3.759-23.152-14.066-39.476-27.571-43.667   c-16.832-5.223-30.26-15.811-31.095-16.477c-3.152-2.608-7.803-2.529-10.868,0.301c-3.734,3.448-8.527,6.156-14.242,8.05   c-2.637,0.874-4.662,3.028-5.385,5.711c-0.645,2.393-0.181,4.95,1.265,6.964c0.071,0.099,7.159,10.031,13.372,22.922   c7.631,15.833,10.521,29.202,8.14,37.645c-2.601,9.222-8.257,16.269-14.245,23.729c-8.872,11.053-18.927,23.581-17.085,43.373   c0.396,4.249,3.961,7.499,8.229,7.499h32.19c3.293,0,6.272-1.955,7.582-4.976c0.25-0.575,25.204-57.814,47.848-84.39   C240.181,337.511,240.865,335.066,240.476,332.673z"/>
</g>
<path style="fill:#666568;" d="M502.496,257.568c-0.31,0-0.62-0.018-0.936-0.053c-4.536-0.51-7.798-4.602-7.287-9.137  c3.22-28.588-0.102-48.446-9.357-55.916c-7.142-5.765-16.364-2.756-16.753-2.625c-4.299,1.536-8.993-0.714-10.53-5.012  c-1.537-4.298,0.737-9.04,5.034-10.577c0.728-0.261,17.991-6.244,32.392,5.161c14.386,11.392,19.646,35.218,15.635,70.818  C510.223,254.45,506.646,257.568,502.496,257.568z"/>
<path style="fill:#8A8990;" d="M503.363,312.03l-23.672-34.325c23.311-50.418-2.019-111.291-40.829-135.802  c-23.549-14.873-54.241-14.661-86.734-14.439c-23.124,0.159-47.031,0.324-68.992-5.099c-47.308-11.682-99.341-7.737-113.75-6.307  c-14.9-13.045-30.523-17.938-42.489-19.546c-18.287-2.455-32.123,2.056-32.704,2.25c-2.986,0.995-5.148,3.601-5.575,6.721  c-0.426,3.118,0.955,6.209,3.565,7.97c7.925,5.349,15.012,13.127,20.969,21.163c-7.654,7.191-14.529,18.101-21.717,29.528  c-9.149,14.545-19.518,31.031-29.683,35.256C40.342,208.3,8.177,209.999,7.857,210.016c-2.705,0.133-5.172,1.583-6.605,3.881  s-1.65,5.152-0.58,7.639l22.878,53.188c0.041,0.522,0.132,1.044,0.273,1.556c1.537,5.547,6.864,6.461,10.159,5.748l0.003,0.012  l0.426-0.118l0,0l27.744-7.654c10.565-2.918,12.305-0.976,18.061,5.453c7.507,8.387,18.786,20.991,52.827,20.99  c0.558,0,1.126-0.003,1.696-0.01c17.345-0.209,31.407-4.05,41.998-11.405c6.357,4.371,17.741,11.299,31.265,15.496  c3.598,1.116,7.426,5.398,10.504,11.748c7.401,15.268,8.893,38.425,3.395,52.719c-3.777,9.82-7.718,16.283-11.196,21.987  c-5.438,8.918-10.133,16.619-9.156,29.826c0.32,4.316,3.914,7.654,8.242,7.654h35.681c3.475,0,6.58-2.174,7.766-5.44  c0.16-0.439,16.072-44.285,25.3-77.243c2.706-9.664,4.288-19.483,5.16-28.637c14.36,2.09,44.021,5.71,77.227,5.71  c14.878,0,30.461-0.742,45.693-2.66c16.648,17.542,36.31,27.673,46.834,32.236c-5.835,23.924-4.851,59.444-4.801,61.112  c0.134,4.465,3.793,8.015,8.261,8.015h39.645c4.564,0,8.264-3.7,8.264-8.264v-96.832C504.824,315.045,504.315,313.41,503.363,312.03  z"/>
<path style="fill:#666568;" d="M503.363,312.03l-23.672-34.325c23.311-50.418-2.019-111.291-40.829-135.802  c-23.045-14.554-52.93-14.662-84.649-14.453c19.555,1.109,37.585,4.44,52.679,13.972c38.81,24.511,64.14,85.384,40.829,135.802  l23.672,34.325c0.951,1.38,1.461,3.016,1.461,4.692v96.832c0,4.564-3.7,8.264-8.264,8.264h-10.428  c0.863,0.305,1.787,0.48,2.754,0.48h39.645c4.564,0,8.264-3.7,8.264-8.264v-96.832C504.824,315.045,504.315,313.41,503.363,312.03z"/>
<path style="fill:#2B2B2B;" d="M123.401,210.053c-5.279,0-9.574-4.288-9.574-9.556c0-5.269,4.294-9.556,9.574-9.556  c5.278,0,9.572,4.288,9.572,9.556C132.975,205.767,128.68,210.053,123.401,210.053z"/>
<path style="fill:#D9D9DB;" d="M90.107,221.271c-35.733-23.45-33.635-45.358-33.403-47.111c0.917-4.158-1.51-8.192-5.57-9.499  c-4.082-1.316-8.521,0.862-10.182,4.815c-15.501,36.908,12.3,75.803,13.491,77.44c1.618,2.225,4.136,3.404,6.691,3.404  c0.863,0,1.728-0.139,2.565-0.413l0.001,0.002c0,0,0.015-0.009,0.02-0.011c0.791-0.262,1.558-0.642,2.268-1.159  c0.109-0.079,0.208-0.167,0.313-0.251c5.496-3.009,18.196-9.997,23.031-12.954c0.441-0.225,0.862-0.491,1.26-0.797l0,0l0,0  c0.721-0.551,1.366-1.223,1.892-2.024C94.987,228.899,93.923,223.775,90.107,221.271z"/>
<g>
</g>
<g>
</g>
<g>
</g>
<g>
</g>
<g>
</g>
<g>
</g>
<g>
</g>
<g>
</g>
<g>
</g>
<g>
</g>
<g>
</g>
<g>
</g>
<g>
</g>
<g>
</g>
<g>
</g>
</svg>
