<?xml version="1.0" encoding="iso-8859-1"?>
<!-- Generator: Adobe Illustrator 19.0.0, SVG Export Plug-In . SVG Version: 6.00 Build 0)  -->
<svg xmlns="http://www.w3.org/2000/svg" xmlns:xlink="http://www.w3.org/1999/xlink" version="1.1" id="Layer_1" x="0px" y="0px" viewBox="0 0 512 512" style="enable-background:new 0 0 512 512;" xml:space="preserve">
<g>
	<path style="fill:#493625;" d="M459.257,365.563c-0.229-0.274-23.061-27.85-36.126-56.066c-1.075-2.321-3.145-4.029-5.63-4.645   c-2.482-0.609-5.111-0.066-7.146,1.486c-7.772,5.939-17.654,10.817-29.37,14.5c-2.441,0.768-4.402,2.601-5.33,4.986   c-0.928,2.384-0.724,5.062,0.556,7.278l22.063,38.218l-11.946,22.586c-1.382,2.615-1.294,5.762,0.231,8.296   c1.526,2.533,4.268,4.082,7.225,4.082h48.719c4.37,0,7.964-3.323,8.392-7.581c1.243-8.524,4.147-18.219,6.115-20.449   c2.06-1.197,3.527-3.216,4.018-5.564C461.557,370.168,460.904,367.543,459.257,365.563z"/>
	<path style="fill:#493625;" d="M220.347,371.667c-6.726-8.408-13.774-24.069-20.38-45.289c-1.027-3.298-3.96-5.636-7.404-5.902   c-22.133-1.708-41.125-15.127-53.161-26.082c-2.807-2.556-6.977-2.923-10.185-0.892c-3.21,2.029-4.667,5.951-3.562,9.584   c2.561,8.416,13.977,44.983,24.767,64.581c-8.2,4.909-16.799,14.019-18.78,29.083c-0.317,2.409,0.419,4.836,2.021,6.662   c1.601,1.826,3.912,2.873,6.342,2.873h49.863c4.659,0,8.434-3.775,8.434-8.434c0-0.079-0.001-0.159-0.003-0.236   c0.118-3.12,2.556-6.022,7.256-8.63c4.818-2.673,9.902-3.784,9.927-3.79c2.871-0.598,5.225-2.644,6.217-5.402   C222.69,377.034,222.179,373.957,220.347,371.667z"/>
</g>
<path style="fill:#B79274;" d="M511.882,396.444c-0.117-0.691-11.578-69.508-3.076-107.285c2.786-12.379,7.745-45.181-6.317-82.329  c-13.57-35.857-40.061-64.079-78.735-83.882c-35.972-18.42-84.982-22.095-145.666-10.923c-37.815,6.961-67.892,17.567-77.046,20.98  c-28.78-8.364-67.417-1.001-74.44,0.46c-0.586-5.875-1.099-9.775-1.099-9.775c-22.541,2.538-34.554,18.941-40.887,34.001  c-1.692-0.724-3.631-0.908-5.548-0.382c-65.031,17.867-78.47,124.831-79.01,129.375c-0.27,2.272,0.394,4.555,1.839,6.327  l24.493,30.034c1.718,2.107,4.107,3.278,6.533,3.278c1.493,0,3.002-0.445,4.375-1.387c1.249-0.622,13.107-6.092,51.085-10.599  c13.009-1.544,23.277-7.532,31.366-15.592c11.101,11.798,35.066,33.267,65.791,37.876c4.172,12.669,9.264,25.609,15.147,35.878  c-9.651,4.511-19.261,12.639-19.261,25.354c0,4.659,3.775,8.434,8.434,8.434h60.252c3.253,0,6.216-1.871,7.615-4.808  c2.263-4.752,15.569-32.798,25.963-56.916c6.898,0.705,18.712,1.637,32.97,1.637c28.688,0,67.263-3.775,95.541-20.768  c3.113,5.922,6.701,12.105,10.794,18.554c7.295,11.5,14.435,21.106,18.852,26.8c-4.476,7.611-6.678,18.637-7.702,25.887  c-0.343,2.418,0.381,4.866,1.984,6.71c1.603,1.845,3.925,2.904,6.367,2.904h61.069c2.483,0,4.839-1.094,6.443-2.99  C511.609,401.399,512.295,398.892,511.882,396.444z"/>
<g>
	<path style="fill:#89684D;" d="M510.008,403.294c1.603-1.896,2.287-4.402,1.875-6.85c-0.117-0.691-11.578-69.508-3.076-107.285   c2.786-12.379,7.745-45.181-6.317-82.329c-13.57-35.857-40.061-64.079-78.735-83.882c-34.501-17.666-81.002-21.761-138.285-12.21   c11.416,1.147,26.077,2.39,44.49,3.728c23.828,1.044,47.238,5.635,67.459,15.989c82.659,42.325,89.63,117.016,80.666,156.852   c-6.418,28.524-0.196,87.679,3.856,118.977h21.625C506.048,406.284,508.404,405.191,510.008,403.294z"/>
	<path style="fill:#89684D;" d="M53.279,320.079c7.882-1.799,19.194-3.855,35.104-5.743c12.943-1.536,23.17-7.474,31.239-15.471   c15.451-28.101,20.384-66.004,20.384-66.004h-0.243c-12.375,0-23.2,8.175-26.762,20.027c-2.874,9.567-7.392,21.054-14.278,30.918   c-0.002,0.003-0.003,0.006-0.006,0.009c-0.003,0.004-0.007,0.009-0.009,0.013c-0.031,0.045-0.063,0.09-0.096,0.135   C91.807,293.917,63.862,313.811,53.279,320.079z"/>
	<path style="fill:#89684D;" d="M133.865,122.589c-0.599-4.558-4.741-7.787-9.305-7.281c-20.725,2.334-36.89,15.085-46.747,36.876   c-7.062,15.616-8.376,30.482-8.429,31.107c-0.389,4.636,3.05,8.702,7.684,9.1c0,0,19.933,6.908,48.794,0.042   c3.378,0,6.568-2.043,7.864-5.382C139.861,171.258,134.918,130.582,133.865,122.589z"/>
	<path style="fill:#89684D;" d="M405.406,275.287c-12.782,29.999-48.32,59.17-62.205,69.764   c23.351-2.092,48.802-7.483,69.001-19.621C403.656,305.899,405.406,275.287,405.406,275.287z"/>
	<path style="fill:#89684D;" d="M267.856,287.763c-0.524,8.193-1.289,16.43-2.393,21.951c-2.25,11.249-28.967,68.821-42.026,96.57   h26.674c3.253,0,6.216-1.871,7.615-4.808c2.263-4.753,15.569-32.798,25.963-56.916c0.066,0.007,0.139,0.013,0.206,0.02   c4.513-11.383,7.875-20.585,8.668-24.55c2.988-14.938-1.125-60.112-1.125-60.112C278.309,263.002,268.718,274.303,267.856,287.763z   "/>
</g>
<path d="M59.356,248.044c-5.351,0-9.703-4.345-9.703-9.686c0-5.341,4.352-9.685,9.703-9.685s9.703,4.344,9.703,9.685  C69.059,243.699,64.707,248.044,59.356,248.044z"/>
<g>
</g>
<g>
</g>
<g>
</g>
<g>
</g>
<g>
</g>
<g>
</g>
<g>
</g>
<g>
</g>
<g>
</g>
<g>
</g>
<g>
</g>
<g>
</g>
<g>
</g>
<g>
</g>
<g>
</g>
</svg>
